<?xml version="1.0" standalone="no"?>
<!DOCTYPE svg PUBLIC "-//W3C//DTD SVG 20010904//EN"
 "http://www.w3.org/TR/2001/REC-SVG-20010904/DTD/svg10.dtd">
<svg version="1.0" xmlns="http://www.w3.org/2000/svg"
 width="980.000000pt" height="980.000000pt" viewBox="0 0 980.000000 980.000000"
 preserveAspectRatio="xMidYMid meet">

<g transform="translate(0.000000,980.000000) scale(0.100000,-0.100000)"
fill="#000000" stroke="none">
<path d="M2275 7893 c-106 -16 -190 -58 -252 -126 -54 -59 -79 -110 -93 -188
l-11 -64 -71 -18 c-159 -40 -282 -129 -336 -244 -23 -50 -27 -71 -27 -148 0
-83 3 -95 35 -154 75 -140 229 -187 378 -115 65 32 106 85 122 157 11 50 9 75
-16 155 -6 21 -4 23 22 17 107 -24 226 -120 280 -228 23 -43 54 -130 54 -148
0 -4 -36 -30 -79 -58 -222 -144 -402 -384 -461 -615 -78 -305 -33 -647 114
-863 118 -173 337 -299 625 -359 108 -23 118 -36 102 -130 -21 -120 -86 -302
-217 -612 -225 -530 -269 -929 -143 -1290 192 -549 802 -864 1464 -756 50 8
181 37 292 64 264 65 361 80 519 80 215 0 299 -20 576 -134 197 -81 365 -116
593 -123 199 -6 306 8 585 76 408 100 449 101 845 20 239 -48 271 -53 400 -53
116 -1 152 3 213 21 296 89 397 347 234 598 -85 132 -356 345 -584 461 l-72
37 24 16 c196 130 434 351 577 536 172 221 319 523 387 793 51 199 61 290 60
547 0 251 -14 374 -64 576 -49 191 -159 460 -257 623 -133 222 -349 469 -548
627 -743 591 -1751 681 -2625 234 -372 -191 -731 -521 -932 -857 -22 -38 -41
-68 -43 -68 -1 0 -10 24 -20 53 -100 307 -392 575 -719 660 l-84 21 5 68 c11
134 -29 324 -98 461 -133 264 -381 436 -649 451 -41 2 -88 2 -105 -1z m180
-158 c243 -51 439 -247 521 -522 34 -113 39 -291 11 -392 -16 -58 -16 -66 -2
-87 9 -15 25 -24 40 -24 24 0 33 7 58 43 13 18 16 18 82 2 336 -85 602 -357
669 -687 l16 -77 -31 -83 c-68 -183 -114 -373 -140 -583 -19 -146 -16 -475 5
-615 20 -138 80 -389 106 -445 10 -22 32 -73 49 -114 101 -241 287 -491 501
-676 224 -193 447 -320 800 -455 69 -27 165 -64 213 -84 104 -41 257 -85 412
-118 98 -20 138 -23 365 -23 221 0 271 3 378 23 221 41 455 118 643 213 l81
40 81 -40 c165 -82 401 -252 513 -370 91 -95 136 -201 120 -286 -9 -46 -66
-110 -125 -139 -129 -65 -259 -65 -566 -1 -467 97 -535 98 -900 10 -289 -70
-323 -76 -500 -82 -146 -5 -188 -2 -295 16 -153 26 -258 58 -404 121 -225 97
-349 123 -591 123 -175 0 -255 -11 -490 -69 -339 -84 -444 -99 -620 -91 -365
18 -671 167 -861 420 -61 82 -127 223 -156 332 -20 80 -23 112 -22 280 0 157
4 208 23 295 30 140 92 326 184 545 199 475 247 678 189 796 -36 75 -77 96
-264 139 -183 41 -350 128 -436 225 -144 164 -205 465 -147 737 49 233 216
461 431 588 111 66 142 78 185 72 42 -5 60 14 109 120 54 115 73 216 67 348
-8 170 -56 291 -156 390 -74 74 -135 102 -234 108 -71 4 -80 3 -102 -18 -24
-23 -32 -64 -17 -85 4 -6 22 -21 40 -34 43 -30 44 -71 3 -112 -43 -42 -116
-34 -174 19 -80 75 -38 226 80 286 73 37 152 43 258 21z m125 -390 c54 -113
50 -117 -36 -35 -44 41 -80 75 -82 76 -2 1 0 23 4 49 l7 47 39 -39 c21 -21 52
-65 68 -98z m-593 -4 l22 -28 -59 -6 c-61 -5 -147 -39 -189 -74 -18 -15 -25
-30 -25 -57 0 -48 23 -69 81 -76 43 -5 48 -8 57 -38 27 -94 -139 -148 -203
-65 -12 14 -26 43 -31 64 -35 128 64 243 251 293 73 20 72 20 96 -13z m443
-108 c93 -80 189 -203 190 -244 0 -14 -7 -46 -15 -71 -15 -41 -20 -46 -69 -61
-29 -9 -55 -17 -59 -17 -3 0 -13 26 -22 57 -29 100 -81 189 -154 263 -63 65
-66 70 -42 70 14 0 44 9 66 19 54 26 55 26 105 -16z m3870 -29 c527 -61 999
-292 1352 -662 280 -294 475 -679 554 -1088 33 -172 44 -472 24 -654 -15 -138
-65 -343 -111 -460 l-34 -85 -6 88 c-13 157 -54 256 -159 377 -74 86 -109 151
-126 232 -20 95 -12 182 34 363 44 174 49 311 14 410 -53 151 -150 274 -261
329 -72 36 -131 49 -290 66 -251 27 -326 88 -446 365 -86 197 -159 286 -276
339 -178 81 -307 54 -524 -109 -131 -98 -212 -140 -310 -160 -98 -20 -145 -16
-360 33 -149 34 -172 36 -325 37 l-165 0 -66 -32 c-103 -51 -170 -125 -229
-257 -31 -68 -47 -125 -80 -286 -26 -122 -61 -206 -125 -296 -54 -75 -114
-123 -244 -193 -114 -62 -183 -114 -256 -193 -30 -32 -55 -57 -55 -55 0 25 45
253 65 324 148 550 526 1013 1065 1305 235 128 542 227 795 257 50 6 101 13
115 15 68 9 310 4 430 -10z m227 -498 c85 -43 126 -101 211 -293 89 -202 159
-292 269 -351 75 -39 114 -49 290 -72 81 -11 168 -27 195 -35 74 -25 141 -92
190 -193 40 -80 43 -92 46 -182 3 -87 0 -112 -34 -236 -32 -118 -38 -159 -42
-271 -4 -113 -1 -141 16 -200 25 -81 69 -157 143 -244 30 -35 67 -93 83 -129
25 -55 30 -80 34 -180 5 -136 2 -146 -88 -281 -84 -126 -133 -185 -253 -308
-245 -250 -570 -447 -902 -547 -174 -53 -286 -68 -495 -69 -414 0 -750 81
-1040 251 -95 56 -190 130 -300 234 -110 103 -250 288 -301 395 -51 107 -72
215 -66 330 11 191 60 265 232 350 111 54 206 123 244 176 40 54 57 111 76
253 17 124 36 176 80 220 49 49 84 61 176 61 86 0 87 0 211 -63 197 -98 241
-99 490 -17 115 38 148 45 215 45 148 0 249 -52 297 -154 21 -45 26 -70 26
-134 0 -164 28 -236 152 -394 101 -129 122 -173 115 -243 -18 -172 -205 -347
-435 -406 -87 -22 -257 -27 -333 -10 -259 59 -421 228 -420 441 0 121 45 227
129 302 47 42 148 78 221 78 62 0 91 21 91 65 0 47 -29 65 -105 65 -126 0
-234 -45 -338 -141 -76 -69 -134 -151 -159 -227 -26 -74 -35 -234 -18 -310 26
-119 99 -250 192 -345 52 -53 137 -117 156 -117 6 0 12 -4 14 -8 5 -13 119
-59 193 -78 53 -14 105 -18 210 -18 149 1 222 14 376 70 288 104 485 329 569
649 27 101 38 362 21 475 -13 82 -46 223 -60 255 -63 147 -117 245 -169 306
-11 13 -47 58 -81 100 -161 203 -376 345 -631 418 -444 127 -832 102 -1215
-79 -245 -116 -439 -288 -601 -533 -135 -203 -261 -527 -303 -779 -20 -116
-53 -167 -101 -150 -29 10 -71 57 -91 102 -25 57 -41 224 -33 345 20 296 96
413 359 555 44 24 104 62 133 84 73 57 158 166 203 261 36 79 44 106 94 335
28 128 68 218 127 285 87 98 247 115 518 54 224 -51 232 -52 350 -46 63 3 136
12 161 20 79 26 180 83 284 159 55 41 122 87 148 102 82 48 184 49 274 2z
m-1100 -682 c-3 -3 -12 -4 -19 -1 -8 3 -5 6 6 6 11 1 17 -2 13 -5z m663 -167
c235 -56 404 -144 549 -289 161 -160 251 -351 282 -599 11 -89 7 -255 -7 -326
l-6 -33 -31 43 c-17 23 -57 74 -90 112 -93 111 -109 149 -118 288 -7 101 -12
128 -38 182 -74 159 -218 245 -409 245 -93 0 -164 -16 -317 -71 -52 -18 -118
-34 -155 -36 -63 -5 -68 -3 -163 47 -137 72 -197 91 -292 93 -171 3 -298 -80
-355 -232 -10 -25 -25 -98 -34 -161 -28 -190 -50 -218 -261 -323 -61 -31 -133
-75 -159 -98 l-47 -42 6 39 c3 21 13 75 21 119 82 442 409 832 830 991 172 65
296 84 514 79 142 -3 195 -8 280 -28z m-1515 -377 c-3 -5 -12 -10 -18 -10 -7
0 -6 4 3 10 19 12 23 12 15 0z m2115 -1484 c0 -2 -8 -10 -17 -17 -16 -13 -17
-12 -4 4 13 16 21 21 21 13z m1020 -310 c0 -2 -8 -10 -17 -17 -16 -13 -17 -12
-4 4 13 16 21 21 21 13z"/>
<path d="M2575 6123 c-106 -56 -154 -183 -110 -291 59 -139 254 -171 342 -56
70 92 70 227 0 302 -55 59 -165 80 -232 45z m138 -65 c28 -14 50 -74 37 -98
-17 -32 -52 -50 -97 -50 -85 0 -126 46 -96 108 26 55 95 72 156 40z"/>
</g>
</svg>
